<svg width="72" height="72" viewBox="0 0 72 72" fill="none" xmlns="http://www.w3.org/2000/svg">
<g clip-path="url(#clip0_1902_420)">
<path fill-rule="evenodd" clip-rule="evenodd" d="M21.2086 11.9883C18.2494 11.9883 15.9094 14.3016 15.9094 17.2271V54.7725C15.9094 57.6933 18.2494 60.0113 21.2086 60.0113C24.1678 60.0113 26.5078 57.698 26.5078 54.7725V44.365H34.9694L45.2889 57.2867C46.5274 58.8523 48.111 60.0066 50.5171 60.0066C53.0604 60.0066 55.5374 58.1046 55.5374 55.1791C55.5374 53.5434 54.8472 52.4592 53.8167 51.1647L46.4565 42.3228C52.304 39.9441 56.0905 35.3175 56.0905 27.8355V27.7C56.0905 23.2089 54.6487 19.4703 51.9636 16.8158C51.4398 16.2979 50.8723 15.8191 50.2623 15.3807C50.2621 15.8029 50.2615 16.421 50.2607 17.1305C50.2585 19.1506 50.2555 21.9117 50.2623 23.001C50.2717 24.7628 49.8699 26.4218 48.9434 27.9313C47.0714 30.983 44.306 32.5719 40.7039 32.6747C39.2584 32.7164 37.8151 32.7053 36.3709 32.6942C35.7088 32.6891 35.0465 32.6841 34.3837 32.6841H33.9535V33.0906C33.9535 33.4244 33.954 33.7575 33.9545 34.0904C33.9556 34.755 33.9566 35.4183 33.9535 36.0816C33.9535 36.2451 33.9488 36.4227 33.892 36.5769C33.684 37.1705 32.9844 37.3387 32.4361 36.9368C31.5341 36.2723 30.6322 35.6027 29.7303 34.9331C29.129 34.4867 28.5277 34.0403 27.9263 33.5954C25.8606 32.0672 23.7948 30.539 21.729 29.0062C21.0908 28.5342 21.0956 27.8752 21.7432 27.3939C21.8874 27.2864 22.0327 27.1789 22.1781 27.0714C22.3234 26.9639 22.4688 26.8564 22.613 26.749C25.8842 24.3235 29.1554 21.8981 32.4219 19.4726C32.7528 19.2296 33.1026 19.1688 33.4713 19.3464C33.84 19.524 33.9535 19.8465 33.9535 20.2344C33.9472 20.9199 33.9493 21.6076 33.9514 22.2946C33.9524 22.6378 33.9535 22.9809 33.9535 23.3234V23.6926C34.0033 23.6964 34.046 23.7009 34.0844 23.705C34.1407 23.711 34.1874 23.716 34.2324 23.716C34.9161 23.716 35.5997 23.7185 36.2833 23.721C37.8778 23.7269 39.4717 23.7328 41.0632 23.7066C43.5166 23.6692 45.5115 22.6458 47.0714 20.7811C47.719 20.0007 48.1587 18.0846 48.7354 14.9442C48.7681 14.7619 48.8228 14.6181 48.9011 14.5097C46.0017 12.8626 42.3175 11.9883 37.9286 11.9883H21.2086Z" fill="#333333"/>
</g>
<defs>
<clipPath id="clip0_1902_420">
<rect width="72" height="72" fill="white"/>
</clipPath>
</defs>
</svg>
